HIERARCHY
ROOT Pelvis
{
	OFFSET 0.000000 0.000000 0.000000
	CHANNELS 6 Xposition Yposition Zposition Xrotation Yrotation Zrotation
	JOINT LeftUpLeg_virtual
	{
		OFFSET 0.000000 0.000000 0.000000
		CHANNELS 3 Xrotation Yrotation Zrotation
		JOINT LeftUpLeg
		{
			OFFSET 18.735201 -5.666702 -4.541200
			CHANNELS 3 Xrotation Yrotation Zrotation
			JOINT LeftLeg
			{
				OFFSET -0.021200 -31.938179 0.493100
				CHANNELS 3 Xrotation Yrotation Zrotation
				JOINT LeftFoot
				{
					OFFSET 0.021200 -31.938179 -4.336299
					CHANNELS 3 Xrotation Yrotation Zrotation
					JOINT LeftToeBase
					{
						OFFSET 0.943001 -26.722000 15.023500
						CHANNELS 3 Xrotation Yrotation Zrotation
						End Site
						{
							OFFSET 0 0 0
						}
					}
				}
			}
		}
	}
	JOINT RightUpLeg_virtual
	{
		OFFSET 0.000000 0.000000 0.000000
		CHANNELS 3 Xrotation Yrotation Zrotation
		JOINT RightUpLeg
		{
			OFFSET -18.735201 -5.666702 -4.541200
			CHANNELS 3 Xrotation Yrotation Zrotation
			JOINT RightLeg
			{
				OFFSET 0.018946 -31.938133 0.493100
				CHANNELS 3 Xrotation Yrotation Zrotation
				JOINT RightFoot
				{
					OFFSET -0.018946 -31.938126 -4.336299
					CHANNELS 3 Xrotation Yrotation Zrotation
					JOINT RightToeBase
					{
						OFFSET -0.943001 -26.722004 15.023500
						CHANNELS 3 Xrotation Yrotation Zrotation
						End Site
						{
							OFFSET 0 0 0
						}
					}
				}
			}
		}
	}
	JOINT Hips_virtual
	{
		OFFSET 0.000000 0.000000 0.000000
		CHANNELS 3 Xrotation Yrotation Zrotation
		JOINT Hips
		{
			OFFSET -0.000000 -0.000000 -0.000000
			CHANNELS 3 Xrotation Yrotation Zrotation
			JOINT Spine
			{
				OFFSET 0.000000 10.199997 -0.299500
				CHANNELS 3 Xrotation Yrotation Zrotation
				JOINT Spine1
				{
					OFFSET 0.000000 11.900002 -1.516600
					CHANNELS 3 Xrotation Yrotation Zrotation
					JOINT Spine2
					{
						OFFSET 0.000000 13.600006 -2.842500
						CHANNELS 3 Xrotation Yrotation Zrotation
						JOINT Neck_virtual
						{
							OFFSET 0.000000 0.000000 0.000000
							CHANNELS 3 Xrotation Yrotation Zrotation
							JOINT Neck
							{
								OFFSET 0.000000 9.624100 -2.890100
								CHANNELS 3 Xrotation Yrotation Zrotation
								JOINT Head
								{
									OFFSET 0.000000 14.068802 -1.351900
									CHANNELS 3 Xrotation Yrotation Zrotation
									End Site
									{
										OFFSET 0 0 0
									}
								}
							}
						}
						JOINT LeftShoulder_virtual
						{
							OFFSET 0.000000 0.000000 0.000000
							CHANNELS 3 Xrotation Yrotation Zrotation
							JOINT LeftShoulder
							{
								OFFSET 15.263000 10.923401 -0.547700
								CHANNELS 3 Xrotation Yrotation Zrotation
								JOINT LeftArm
								{
									OFFSET 25.438599 -2.830597 -13.032500
									CHANNELS 3 Xrotation Yrotation Zrotation
									JOINT LeftForeArm
									{
										OFFSET 29.960503 0.000000 0.000000
										CHANNELS 3 Xrotation Yrotation Zrotation
										JOINT LeftHand
										{
											OFFSET 27.849251 0.000000 0.000000
											CHANNELS 3 Xrotation Yrotation Zrotation
											End Site
											{
												OFFSET 0 0 0
											}
										}
									}
								}
							}
						}
						JOINT RightShoulder_virtual
						{
							OFFSET 0.000000 0.000000 0.000000
							CHANNELS 3 Xrotation Yrotation Zrotation
							JOINT RightShoulder
							{
								OFFSET -15.263000 10.923401 -0.547700
								CHANNELS 3 Xrotation Yrotation Zrotation
								JOINT RightArm
								{
									OFFSET -25.438599 -2.830597 -13.032500
									CHANNELS 3 Xrotation Yrotation Zrotation
									JOINT RightForeArm
									{
										OFFSET -29.960503 0.000000 0.000000
										CHANNELS 3 Xrotation Yrotation Zrotation
										JOINT RightHand
										{
											OFFSET -27.849251 0.000000 0.000000
											CHANNELS 3 Xrotation Yrotation Zrotation
											End Site
											{
												OFFSET 0 0 0
											}
										}
									}
								}
							}
						}
					}
				}
			}
		}
	}
}
MOTION
Frames: 12
Frame Time: 0.03333333
-2.784041 87.823151 2.836773 0.000000 0.000000 0.000000 -6.078106 -42.937964 -3.789153 -34.382711 2.797548 16.536475 38.554922 -14.780082 -0.466879 -1.768594 0.957432 -10.955042 0.000000 0.000000 0.000000 -6.078106 -42.937964 -3.789153 1.092599 -13.635790 -18.500076 33.754785 -7.693374 -0.145382 -25.573854 -6.507766 21.331815 0.000000 0.000000 0.000000 -6.078106 -42.937964 -3.789153 0.000000 0.000001 0.000000 5.850732 4.525925 -1.455237 11.836539 9.037617 -3.083968 0.000000 0.000000 0.000000 11.836539 9.037614 -3.083969 -1.982213 -0.276599 0.110074 0.000000 0.000000 0.000000 11.836539 9.037614 -3.083969 1.396588 -0.734470 -7.859327 -14.236648 2.407737 -63.256793 9.875216 -47.538386 5.912044 0.000000 0.000000 0.000000 11.836539 9.037614 -3.083969 1.410915 9.461493 9.792766 1.220064 -24.270690 60.532866 -6.660697 41.858435 8.043899 0.000000 0.000000 0.000000 
-2.052952 87.007744 2.124393 0.000000 0.000000 0.000000 -3.042748 -44.448388 -1.592590 -38.135050 2.759440 16.831678 40.297839 -13.928407 -0.369457 -1.785174 1.033989 -11.135714 0.000000 0.000000 0.000000 -3.042748 -44.448388 -1.592590 -4.597539 -8.554529 -18.267116 39.525892 -10.696731 -0.535016 -26.686459 -6.467856 22.640696 0.000000 0.000000 0.000000 -3.042748 -44.448388 -1.592590 0.000000 0.000001 0.000000 6.046370 4.256799 -1.352424 12.224173 8.528400 -2.981038 0.000000 0.000000 0.000000 12.224171 8.528400 -2.981036 -2.539981 0.154644 0.233628 0.000000 0.000000 0.000000 12.224171 8.528400 -2.981036 0.265573 -1.356440 -8.721384 -15.849135 -0.272484 -61.599127 11.914433 -42.970650 5.909666 0.000000 0.000000 0.000000 12.224171 8.528400 -2.981036 0.311098 10.730826 8.924907 0.830474 -21.973982 60.244543 -4.994660 43.080001 7.063708 0.000000 0.000000 0.000000 
-0.795785 85.707474 1.034233 0.000000 0.000000 0.000000 1.802095 -45.890064 2.299741 -43.821213 2.396183 16.673709 42.373469 -12.605995 -0.253835 -1.215682 1.081794 -11.427289 0.000000 0.000000 0.000000 1.802095 -45.890064 2.299741 -13.517576 -4.471426 -19.043264 47.093632 -11.558470 -0.769605 -27.959612 -6.255300 23.605224 0.000000 0.000000 0.000000 1.802095 -45.890064 2.299741 0.000000 0.000000 0.000000 6.282087 3.836531 -1.355118 12.699073 7.684464 -3.146812 0.000000 0.000000 0.000000 12.699074 7.684449 -3.146806 -3.463731 0.650226 0.349165 0.000000 0.000000 0.000000 12.699074 7.684449 -3.146806 -0.875545 -1.769852 -10.074790 -18.137847 -3.049783 -58.867536 13.873468 -38.764759 5.003135 0.000000 0.000000 0.000000 12.699074 7.684449 -3.146806 -0.838678 13.098426 8.883097 -0.164337 -19.694728 59.041221 -3.226354 44.201460 6.321468 0.000000 0.000000 0.000000 
0.888197 83.311279 -0.348030 0.000000 0.000000 0.000000 8.166120 -46.902725 7.558628 -52.377463 1.033397 16.365130 47.016925 -10.908124 -0.180018 -1.050096 1.146815 -11.824469 0.000000 0.000000 0.000000 8.166120 -46.902725 7.558628 -25.252048 -0.984838 -20.381273 56.930269 -10.589892 -1.171984 -29.971871 -6.191191 24.450103 0.000000 0.000000 0.000000 8.166120 -46.902725 7.558628 0.000000 0.000001 0.000000 6.516117 3.332171 -1.438484 13.169144 6.618408 -3.493479 0.000000 0.000000 0.000000 13.169153 6.618413 -3.493481 -4.430949 1.190496 0.603155 0.000000 0.000000 0.000000 13.169153 6.618413 -3.493481 -2.086172 -1.814106 -11.473727 -20.799856 -6.411803 -56.372307 15.798260 -34.521924 4.124782 0.000000 0.000000 0.000000 13.169153 6.618413 -3.493481 -1.942413 15.825369 9.625623 -1.897446 -17.221379 57.395712 -0.791314 45.123081 4.765356 0.000000 0.000000 0.000000 
2.899128 80.340843 -1.915493 0.000000 0.000000 0.000000 15.527303 -47.065577 13.697844 -62.255310 -1.108659 15.497962 51.897434 -8.649061 0.057497 -0.307517 1.152707 -12.722063 0.000000 0.000000 0.000000 15.527303 -47.065577 13.697844 -37.989417 2.467709 -21.513178 66.554893 -9.335813 -1.606611 -31.611106 -5.967874 25.005328 0.000000 0.000000 0.000000 15.527303 -47.065577 13.697844 -0.000001 0.000000 0.000000 6.761395 2.803500 -1.621945 13.656724 5.421475 -4.034898 0.000000 0.000000 0.000000 13.656709 5.421478 -4.034906 -5.480194 1.683613 1.044194 0.000000 0.000000 0.000000 13.656709 5.421478 -4.034906 -3.021300 -1.594961 -12.831284 -26.898011 -12.682992 -55.109702 15.744476 -24.195377 3.605377 0.000000 0.000000 0.000000 13.656709 5.421478 -4.034906 -2.731088 17.626307 11.069227 -4.825921 -13.979237 55.763047 0.666411 46.415374 3.278765 0.000000 0.000000 0.000000 
5.026562 76.756126 -3.498661 0.000000 0.000000 0.000000 22.629185 -46.261933 19.617526 -72.994157 -3.652040 14.254983 57.233813 -6.471198 0.345022 0.814322 1.095023 -13.923984 0.000000 0.000000 0.000000 22.629185 -46.261933 19.617526 -50.769739 6.004218 -23.137163 76.171670 -7.162678 -1.153540 -33.286548 -5.455182 24.856045 0.000000 0.000000 0.000000 22.629185 -46.261933 19.617526 0.000000 0.000001 -0.000001 7.027936 2.302491 -1.863486 14.177755 4.203548 -4.658901 0.000000 0.000000 0.000000 14.177753 4.203523 -4.658892 -6.355947 2.001052 1.709064 0.000000 0.000000 0.000000 14.177753 4.203523 -4.658892 -3.978994 -1.985682 -13.950888 -34.223120 -20.213772 -54.758627 14.733036 -13.019760 2.508598 0.000000 0.000000 0.000000 14.177753 4.203523 -4.658892 -3.795601 18.664484 13.401173 -8.858486 -10.600186 54.198852 1.083638 47.129258 2.267581 0.000000 0.000000 0.000000 
6.993627 72.741791 -4.891453 0.000000 0.000000 0.000000 28.102991 -44.865993 24.170236 -83.594474 -6.070165 12.963498 62.924532 -5.015772 0.461705 2.090236 0.967288 -15.061575 0.000000 0.000000 0.000000 28.102991 -44.865993 24.170236 -62.389065 9.315110 -25.345119 85.405819 -3.987440 -0.548892 -35.043436 -4.777871 24.387296 0.000000 0.000000 0.000000 28.102991 -44.865993 24.170236 0.000000 0.000000 0.000000 7.263935 1.886161 -2.081799 14.630164 3.123815 -5.186111 0.000000 0.000000 0.000000 14.630192 3.123808 -5.186106 -6.700796 2.277748 2.212921 0.000000 0.000000 0.000000 14.630192 3.123808 -5.186106 -5.846978 -4.101658 -14.454357 -35.158730 -22.320840 -53.156630 14.586535 -16.835011 3.735756 0.000000 0.000000 0.000000 14.630192 3.123808 -5.186106 -6.285609 20.345713 16.638052 -13.036861 -8.289538 52.731837 -1.430692 46.207968 2.622007 0.000000 0.000000 0.000000 
8.511025 68.596046 -5.870678 0.000000 0.000000 0.000000 31.158814 -43.561645 26.722984 -92.934006 -8.428973 11.749643 69.007081 -4.400331 0.244083 3.082405 0.915365 -16.041512 0.000000 0.000000 0.000000 31.158814 -43.561645 26.722984 -71.775364 12.009129 -28.346810 94.001237 0.271821 -0.170243 -37.003605 -3.906351 23.325093 0.000000 0.000000 0.000000 31.158814 -43.561645 26.722984 0.000002 -0.000003 0.000001 7.379184 1.626635 -2.231738 14.843434 2.376010 -5.546517 0.000000 0.000000 0.000000 14.843441 2.376011 -5.546520 -6.904470 2.572917 2.337284 0.000000 0.000000 0.000000 14.843441 2.376011 -5.546520 -6.501355 -8.716079 -13.755109 -31.076063 -19.558496 -50.975122 14.562791 -37.069322 9.424013 0.000000 0.000000 0.000000 14.843441 2.376011 -5.546520 -7.868038 23.264633 19.853101 -18.836856 -5.087841 51.171665 -7.666180 41.503696 4.361446 0.000000 0.000000 0.000000 
9.329681 64.779198 -6.270500 0.000000 0.000000 0.000000 31.686480 -42.933053 27.224362 -99.973192 -10.859505 10.272271 75.348352 -4.147491 0.209001 3.310207 1.045350 -17.323337 0.000000 0.000000 0.000000 31.686480 -42.933053 27.224362 -77.436546 14.591297 -30.934156 101.530557 3.720643 -0.454243 -39.169277 -3.451054 23.061123 0.000000 0.000000 0.000000 31.686480 -42.933053 27.224362 0.000001 0.000004 -0.000002 7.402782 1.431829 -2.296193 14.876174 1.872333 -5.699543 0.000000 0.000000 0.000000 14.876166 1.872331 -5.699547 -7.235516 2.881887 2.352072 0.000000 0.000000 0.000000 14.876166 1.872331 -5.699547 -6.231469 -14.293778 -11.113523 -28.674654 -17.121020 -52.590213 18.961204 -61.592583 17.954040 0.000000 0.000000 0.000000 14.876166 1.872331 -5.699547 -8.889759 26.189138 22.573920 -21.275189 -2.186193 49.621980 -16.639910 48.377161 8.313668 0.000000 0.000000 0.000000 
9.254400 61.870857 -5.994362 0.000000 0.000000 0.000000 29.957845 -43.204423 25.926263 -103.865136 -12.886171 9.247998 81.570743 -4.702906 0.096619 2.250181 1.418174 -18.307591 0.000000 0.000000 0.000000 29.957845 -43.204423 25.926263 -78.215051 16.658787 -33.086075 107.236955 6.326434 -0.798353 -42.011930 -3.573494 23.460665 0.000000 0.000000 0.000000 29.957845 -43.204423 25.926263 0.000000 0.000000 0.000000 7.362356 1.105379 -2.305089 14.774748 1.298945 -5.689555 0.000000 0.000000 0.000000 14.774756 1.298948 -5.689556 -7.839052 3.195646 2.604172 0.000000 0.000000 0.000000 14.774756 1.298948 -5.689556 -5.813080 -17.769326 -6.193808 -30.218929 -18.948263 -57.906098 70.272558 -82.213764 69.872767 0.000000 0.000000 0.000000 14.774756 1.298948 -5.689556 -10.227926 28.371824 24.891781 -22.185564 2.291884 47.598495 -19.370273 64.837360 9.718139 0.000000 0.000000 0.000000 
8.137938 60.481110 -4.982216 0.000000 0.000000 0.000000 26.326172 -44.171124 23.122533 -103.598568 -14.506972 8.767485 87.085533 -5.710425 -0.035072 -0.751440 2.134792 -18.941214 0.000000 0.000000 0.000000 26.326172 -44.171124 23.122533 -73.365480 17.229793 -34.128929 110.206222 6.886332 -1.312930 -45.900794 -4.689187 24.994652 0.000000 0.000000 0.000000 26.326172 -44.171124 23.122533 0.000001 -0.000001 0.000001 7.305842 0.582156 -2.330424 14.632644 0.501222 -5.650180 0.000000 0.000000 0.000000 14.632647 0.501212 -5.650173 -8.550112 3.489975 3.028466 0.000000 0.000000 0.000000 14.632647 0.501212 -5.650173 -5.633946 -16.864109 1.045526 -32.701102 -19.039381 -59.048638 170.593223 -67.390608 166.297949 0.000000 0.000000 0.000000 14.632647 0.501212 -5.650173 -12.137858 30.887983 25.974158 -29.824366 9.140261 44.439635 -58.027518 81.935783 47.189258 0.000000 0.000000 0.000000 
5.904669 61.096588 -3.203156 0.000000 0.000000 0.000000 21.127964 -45.247285 19.047034 -98.378534 -14.870107 9.793962 90.851502 -7.789546 -0.526366 -5.979752 3.079614 -18.048628 0.000000 0.000000 0.000000 21.127964 -45.247285 19.047034 -63.167488 15.261255 -34.147514 109.318537 5.010305 -1.681396 -50.157371 -6.471235 27.254849 0.000000 0.000000 0.000000 21.127964 -45.247285 19.047034 0.000000 -0.000002 0.000000 7.288970 0.118767 -2.248453 14.577775 -0.080850 -5.320015 0.000000 0.000000 0.000000 14.577775 -0.080856 -5.320013 -9.031331 3.475197 3.631393 0.000000 0.000000 0.000000 14.577775 -0.080856 -5.320013 -7.095762 -12.502802 9.364863 -46.676608 -26.004028 -63.081196 -174.861326 -61.700411 -179.187458 0.000000 0.000000 0.000000 14.577775 -0.080856 -5.320013 -12.890912 33.869832 22.695030 -43.231235 16.888013 41.480657 -151.438203 80.842426 140.487675 0.000000 0.000000 0.000000 
